<?xml version="1.0" encoding="UTF-8" standalone="no"?>
<!DOCTYPE svg PUBLIC "-//W3C//DTD SVG 1.1//EN"
 "http://www.w3.org/Graphics/SVG/1.1/DTD/svg11.dtd">
<!-- Generated by graphviz version 2.40.1 (20161225.0304)
 -->
<!-- Title: spacetime Pages: 1 -->
<svg width="336pt" height="218pt"
 viewBox="0.00 0.00 336.00 218.40" xmlns="http://www.w3.org/2000/svg" xmlns:xlink="http://www.w3.org/1999/xlink">
<g id="graph0" class="graph" transform="scale(1 1) rotate(0) translate(4 214.4)">
<title>spacetime</title>
<polygon fill="#ffffff" stroke="transparent" points="-4,4 -4,-214.4 332,-214.4 332,4 -4,4"/>
<g id="clust1" class="cluster">
<title>cluster_proc_nodes</title>
<polygon fill="none" stroke="#000000" points="8,-150.4 8,-202.4 320,-202.4 320,-150.4 8,-150.4"/>
</g>
<!-- proc_a -->
<g id="node1" class="node">
<title>proc_a</title>
<ellipse fill="none" stroke="#000000" cx="59" cy="-176.4" rx="43.0237" ry="18"/>
<text text-anchor="middle" x="59" y="-172.2" font-family="Times,serif" font-size="14.00" fill="#000000">Process a</text>
</g>
<!-- proc_b -->
<g id="node2" class="node">
<title>proc_b</title>
<ellipse fill="none" stroke="#000000" cx="164" cy="-176.4" rx="43.5169" ry="18"/>
<text text-anchor="middle" x="164" y="-172.2" font-family="Times,serif" font-size="14.00" fill="#000000">Process b</text>
</g>
<!-- proc_c -->
<g id="node3" class="node">
<title>proc_c</title>
<ellipse fill="none" stroke="#000000" cx="269" cy="-176.4" rx="43.0237" ry="18"/>
<text text-anchor="middle" x="269" y="-172.2" font-family="Times,serif" font-size="14.00" fill="#000000">Process c</text>
</g>
<!-- node_a_1 -->
<g id="node4" class="node">
<title>node_a_1</title>
<ellipse fill="#bfbfbf" stroke="#bfbfbf" cx="59" cy="-120.6" rx="1.8" ry="1.8"/>
</g>
<!-- node_a_2 -->
<g id="node5" class="node">
<title>node_a_2</title>
<ellipse fill="#bfbfbf" stroke="#bfbfbf" cx="59" cy="-81" rx="1.8" ry="1.8"/>
</g>
<!-- node_a_3 -->
<g id="node6" class="node">
<title>node_a_3</title>
<ellipse fill="#bfbfbf" stroke="#bfbfbf" cx="59" cy="-41.4" rx="1.8" ry="1.8"/>
</g>
<!-- node_a_4 -->
<g id="node7" class="node">
<title>node_a_4</title>
<ellipse fill="#bfbfbf" stroke="#bfbfbf" cx="59" cy="-1.8" rx="1.8" ry="1.8"/>
</g>
<!-- node_b_1 -->
<g id="node8" class="node">
<title>node_b_1</title>
<ellipse fill="#bfbfbf" stroke="#bfbfbf" cx="164" cy="-120.6" rx="1.8" ry="1.8"/>
</g>
<!-- node_b_2 -->
<g id="node9" class="node">
<title>node_b_2</title>
<ellipse fill="#bfbfbf" stroke="#bfbfbf" cx="164" cy="-81" rx="1.8" ry="1.8"/>
</g>
<!-- node_b_3 -->
<g id="node10" class="node">
<title>node_b_3</title>
<ellipse fill="#bfbfbf" stroke="#bfbfbf" cx="164" cy="-41.4" rx="1.8" ry="1.8"/>
</g>
<!-- node_b_4 -->
<g id="node11" class="node">
<title>node_b_4</title>
<ellipse fill="#bfbfbf" stroke="#bfbfbf" cx="164" cy="-1.8" rx="1.8" ry="1.8"/>
</g>
<!-- node_c_1 -->
<g id="node12" class="node">
<title>node_c_1</title>
<ellipse fill="#bfbfbf" stroke="#bfbfbf" cx="269" cy="-120.6" rx="1.8" ry="1.8"/>
</g>
<!-- node_c_2 -->
<g id="node13" class="node">
<title>node_c_2</title>
<ellipse fill="#bfbfbf" stroke="#bfbfbf" cx="269" cy="-81" rx="1.8" ry="1.8"/>
</g>
<!-- node_c_3 -->
<g id="node14" class="node">
<title>node_c_3</title>
<ellipse fill="#bfbfbf" stroke="#bfbfbf" cx="269" cy="-41.4" rx="1.8" ry="1.8"/>
</g>
<!-- node_c_4 -->
<g id="node15" class="node">
<title>node_c_4</title>
<ellipse fill="#bfbfbf" stroke="#bfbfbf" cx="269" cy="-1.8" rx="1.8" ry="1.8"/>
</g>
<!-- proc_a&#45;&gt;node_a_1 -->
<g id="edge1" class="edge">
<title>proc_a&#45;&gt;node_a_1</title>
<path fill="none" stroke="#bfbfbf" d="M59,-158.129C59,-144.9067 59,-128.3956 59,-122.6688"/>
</g>
<!-- proc_b&#45;&gt;node_b_1 -->
<g id="edge5" class="edge">
<title>proc_b&#45;&gt;node_b_1</title>
<path fill="none" stroke="#bfbfbf" d="M164,-158.129C164,-144.9067 164,-128.3956 164,-122.6688"/>
</g>
<!-- proc_c&#45;&gt;node_c_1 -->
<g id="edge9" class="edge">
<title>proc_c&#45;&gt;node_c_1</title>
<path fill="none" stroke="#bfbfbf" d="M269,-158.129C269,-144.9067 269,-128.3956 269,-122.6688"/>
</g>
<!-- node_a_1&#45;&gt;node_a_2 -->
<g id="edge2" class="edge">
<title>node_a_1&#45;&gt;node_a_2</title>
<path fill="none" stroke="#bfbfbf" d="M59,-118.4709C59,-111.5308 59,-89.6261 59,-82.9503"/>
</g>
<!-- node_a_2&#45;&gt;node_a_3 -->
<g id="edge3" class="edge">
<title>node_a_2&#45;&gt;node_a_3</title>
<path fill="none" stroke="#bfbfbf" d="M59,-78.8709C59,-71.9308 59,-50.0261 59,-43.3503"/>
</g>
<!-- node_a_3&#45;&gt;node_a_4 -->
<g id="edge4" class="edge">
<title>node_a_3&#45;&gt;node_a_4</title>
<path fill="none" stroke="#bfbfbf" d="M59,-39.2709C59,-32.3308 59,-10.4261 59,-3.7503"/>
</g>
<!-- node_b_1&#45;&gt;node_b_2 -->
<g id="edge6" class="edge">
<title>node_b_1&#45;&gt;node_b_2</title>
<path fill="none" stroke="#bfbfbf" d="M164,-118.4709C164,-111.5308 164,-89.6261 164,-82.9503"/>
</g>
<!-- node_b_2&#45;&gt;node_b_3 -->
<g id="edge7" class="edge">
<title>node_b_2&#45;&gt;node_b_3</title>
<path fill="none" stroke="#bfbfbf" d="M164,-78.8709C164,-71.9308 164,-50.0261 164,-43.3503"/>
</g>
<!-- node_b_3&#45;&gt;node_b_4 -->
<g id="edge8" class="edge">
<title>node_b_3&#45;&gt;node_b_4</title>
<path fill="none" stroke="#bfbfbf" d="M164,-39.2709C164,-32.3308 164,-10.4261 164,-3.7503"/>
</g>
<!-- node_c_1&#45;&gt;node_c_2 -->
<g id="edge10" class="edge">
<title>node_c_1&#45;&gt;node_c_2</title>
<path fill="none" stroke="#bfbfbf" d="M269,-118.4709C269,-111.5308 269,-89.6261 269,-82.9503"/>
</g>
<!-- node_c_2&#45;&gt;node_c_3 -->
<g id="edge11" class="edge">
<title>node_c_2&#45;&gt;node_c_3</title>
<path fill="none" stroke="#bfbfbf" d="M269,-78.8709C269,-71.9308 269,-50.0261 269,-43.3503"/>
</g>
<!-- node_c_3&#45;&gt;node_c_4 -->
<g id="edge12" class="edge">
<title>node_c_3&#45;&gt;node_c_4</title>
<path fill="none" stroke="#bfbfbf" d="M269,-39.2709C269,-32.3308 269,-10.4261 269,-3.7503"/>
</g>
</g>
</svg>
